<mxfile host="Electron" agent="Mozilla/5.0 (Windows NT 10.0; Win64; x64) AppleWebKit/537.36 (KHTML, like Gecko) draw.io/27.0.9 Chrome/134.0.6998.205 Electron/35.4.0 Safari/537.36" version="27.0.9">
  <diagram name="Page-1" id="kAVhSXZDSk_lwhLKCGWt">
    <mxGraphModel dx="3592" dy="3926" grid="0" gridSize="10" guides="1" tooltips="1" connect="1" arrows="1" fold="1" page="1" pageScale="1" pageWidth="850" pageHeight="1100" math="0" shadow="0">
      <root>
        <mxCell id="0" />
        <mxCell id="1" parent="0" />
        <mxCell id="wI4NLF8bzCXB7XDRaqKi-1" value="&lt;font style=&quot;font-size: 42px;&quot;&gt;Intergration Model&lt;/font&gt;" style="text;html=1;align=center;verticalAlign=middle;whiteSpace=wrap;rounded=0;fillColor=default;" parent="1" vertex="1">
          <mxGeometry x="-2550" y="-3300" width="850" height="60" as="geometry" />
        </mxCell>
        <mxCell id="wI4NLF8bzCXB7XDRaqKi-3" value="crm_sales_details" style="swimlane;fontStyle=0;childLayout=stackLayout;horizontal=1;startSize=30;horizontalStack=0;resizeParent=1;resizeParentMax=0;resizeLast=0;collapsible=1;marginBottom=0;whiteSpace=wrap;html=1;rounded=1;fillColor=#0050ef;fontColor=#ffffff;strokeColor=#001DBC;" parent="1" vertex="1">
          <mxGeometry x="-2460" y="-2990" width="140" height="90" as="geometry" />
        </mxCell>
        <mxCell id="wI4NLF8bzCXB7XDRaqKi-4" value="prd_key" style="text;strokeColor=none;fillColor=none;align=left;verticalAlign=middle;spacingLeft=4;spacingRight=4;overflow=hidden;points=[[0,0.5],[1,0.5]];portConstraint=eastwest;rotatable=0;whiteSpace=wrap;html=1;" parent="wI4NLF8bzCXB7XDRaqKi-3" vertex="1">
          <mxGeometry y="30" width="140" height="30" as="geometry" />
        </mxCell>
        <mxCell id="wI4NLF8bzCXB7XDRaqKi-5" value="cst_id" style="text;strokeColor=none;fillColor=none;align=left;verticalAlign=middle;spacingLeft=4;spacingRight=4;overflow=hidden;points=[[0,0.5],[1,0.5]];portConstraint=eastwest;rotatable=0;whiteSpace=wrap;html=1;" parent="wI4NLF8bzCXB7XDRaqKi-3" vertex="1">
          <mxGeometry y="60" width="140" height="30" as="geometry" />
        </mxCell>
        <mxCell id="wI4NLF8bzCXB7XDRaqKi-7" value="crm_cust_info" style="swimlane;fontStyle=0;childLayout=stackLayout;horizontal=1;startSize=30;horizontalStack=0;resizeParent=1;resizeParentMax=0;resizeLast=0;collapsible=1;marginBottom=0;whiteSpace=wrap;html=1;rounded=1;fillColor=#0050ef;fontColor=#ffffff;strokeColor=#001DBC;" parent="1" vertex="1">
          <mxGeometry x="-2260" y="-2910" width="140" height="90" as="geometry" />
        </mxCell>
        <mxCell id="wI4NLF8bzCXB7XDRaqKi-8" value="cst_id" style="text;strokeColor=none;fillColor=none;align=left;verticalAlign=middle;spacingLeft=4;spacingRight=4;overflow=hidden;points=[[0,0.5],[1,0.5]];portConstraint=eastwest;rotatable=0;whiteSpace=wrap;html=1;" parent="wI4NLF8bzCXB7XDRaqKi-7" vertex="1">
          <mxGeometry y="30" width="140" height="30" as="geometry" />
        </mxCell>
        <mxCell id="wI4NLF8bzCXB7XDRaqKi-9" value="cst_key" style="text;strokeColor=none;fillColor=none;align=left;verticalAlign=middle;spacingLeft=4;spacingRight=4;overflow=hidden;points=[[0,0.5],[1,0.5]];portConstraint=eastwest;rotatable=0;whiteSpace=wrap;html=1;rounded=1;" parent="wI4NLF8bzCXB7XDRaqKi-7" vertex="1">
          <mxGeometry y="60" width="140" height="30" as="geometry" />
        </mxCell>
        <mxCell id="wI4NLF8bzCXB7XDRaqKi-13" value="erp_loc_a101" style="swimlane;fontStyle=0;childLayout=stackLayout;horizontal=1;startSize=30;horizontalStack=0;resizeParent=1;resizeParentMax=0;resizeLast=0;collapsible=1;marginBottom=0;whiteSpace=wrap;html=1;rounded=1;fillColor=#e3c800;fontColor=#000000;strokeColor=#B09500;" parent="1" vertex="1">
          <mxGeometry x="-1960" y="-2825" width="140" height="60" as="geometry" />
        </mxCell>
        <mxCell id="wI4NLF8bzCXB7XDRaqKi-14" value="cid" style="text;strokeColor=none;fillColor=none;align=left;verticalAlign=middle;spacingLeft=4;spacingRight=4;overflow=hidden;points=[[0,0.5],[1,0.5]];portConstraint=eastwest;rotatable=0;whiteSpace=wrap;html=1;" parent="wI4NLF8bzCXB7XDRaqKi-13" vertex="1">
          <mxGeometry y="30" width="140" height="30" as="geometry" />
        </mxCell>
        <mxCell id="wI4NLF8bzCXB7XDRaqKi-16" value="erp_cust_az12" style="swimlane;fontStyle=0;childLayout=stackLayout;horizontal=1;startSize=30;horizontalStack=0;resizeParent=1;resizeParentMax=0;resizeLast=0;collapsible=1;marginBottom=0;whiteSpace=wrap;html=1;rounded=1;fillColor=#e3c800;fontColor=#000000;strokeColor=#B09500;" parent="1" vertex="1">
          <mxGeometry x="-1960" y="-2957" width="140" height="60" as="geometry" />
        </mxCell>
        <mxCell id="wI4NLF8bzCXB7XDRaqKi-18" value="cid" style="text;strokeColor=none;fillColor=none;align=left;verticalAlign=middle;spacingLeft=4;spacingRight=4;overflow=hidden;points=[[0,0.5],[1,0.5]];portConstraint=eastwest;rotatable=0;whiteSpace=wrap;html=1;" parent="wI4NLF8bzCXB7XDRaqKi-16" vertex="1">
          <mxGeometry y="30" width="140" height="30" as="geometry" />
        </mxCell>
        <mxCell id="wI4NLF8bzCXB7XDRaqKi-19" value="erp_px_cat_g1v2" style="swimlane;fontStyle=0;childLayout=stackLayout;horizontal=1;startSize=30;horizontalStack=0;resizeParent=1;resizeParentMax=0;resizeLast=0;collapsible=1;marginBottom=0;whiteSpace=wrap;html=1;rounded=1;fillColor=#e3c800;fontColor=#000000;strokeColor=#B09500;" parent="1" vertex="1">
          <mxGeometry x="-1960" y="-3080" width="140" height="60" as="geometry" />
        </mxCell>
        <mxCell id="wI4NLF8bzCXB7XDRaqKi-20" value="id" style="text;strokeColor=none;fillColor=none;align=left;verticalAlign=middle;spacingLeft=4;spacingRight=4;overflow=hidden;points=[[0,0.5],[1,0.5]];portConstraint=eastwest;rotatable=0;whiteSpace=wrap;html=1;" parent="wI4NLF8bzCXB7XDRaqKi-19" vertex="1">
          <mxGeometry y="30" width="140" height="30" as="geometry" />
        </mxCell>
        <mxCell id="wI4NLF8bzCXB7XDRaqKi-22" value="crm_prd_info" style="swimlane;fontStyle=0;childLayout=stackLayout;horizontal=1;startSize=30;horizontalStack=0;resizeParent=1;resizeParentMax=0;resizeLast=0;collapsible=1;marginBottom=0;whiteSpace=wrap;html=1;rounded=1;fillColor=#0050ef;fontColor=#ffffff;strokeColor=#001DBC;" parent="1" vertex="1">
          <mxGeometry x="-2260" y="-3080" width="140" height="60" as="geometry" />
        </mxCell>
        <mxCell id="wI4NLF8bzCXB7XDRaqKi-23" value="prd_key" style="text;strokeColor=none;fillColor=none;align=left;verticalAlign=middle;spacingLeft=4;spacingRight=4;overflow=hidden;points=[[0,0.5],[1,0.5]];portConstraint=eastwest;rotatable=0;whiteSpace=wrap;html=1;" parent="wI4NLF8bzCXB7XDRaqKi-22" vertex="1">
          <mxGeometry y="30" width="140" height="30" as="geometry" />
        </mxCell>
        <mxCell id="wI4NLF8bzCXB7XDRaqKi-25" value="Customer Information" style="text;html=1;align=center;verticalAlign=middle;whiteSpace=wrap;rounded=0;" parent="1" vertex="1">
          <mxGeometry x="-2260" y="-2950" width="140" height="30" as="geometry" />
        </mxCell>
        <mxCell id="wI4NLF8bzCXB7XDRaqKi-26" value="Current &amp;amp; History Product Information" style="text;html=1;align=center;verticalAlign=middle;whiteSpace=wrap;rounded=0;" parent="1" vertex="1">
          <mxGeometry x="-2250" y="-3120" width="120" height="30" as="geometry" />
        </mxCell>
        <mxCell id="wI4NLF8bzCXB7XDRaqKi-27" value="Transactional Records about Sales &amp;amp; Orders" style="text;html=1;align=center;verticalAlign=middle;whiteSpace=wrap;rounded=0;" parent="1" vertex="1">
          <mxGeometry x="-2470" y="-3030" width="160" height="30" as="geometry" />
        </mxCell>
        <mxCell id="wI4NLF8bzCXB7XDRaqKi-28" style="edgeStyle=orthogonalEdgeStyle;rounded=0;orthogonalLoop=1;jettySize=auto;html=1;exitX=1;exitY=0.5;exitDx=0;exitDy=0;entryX=0;entryY=0.5;entryDx=0;entryDy=0;" parent="1" source="wI4NLF8bzCXB7XDRaqKi-4" target="wI4NLF8bzCXB7XDRaqKi-23" edge="1">
          <mxGeometry relative="1" as="geometry" />
        </mxCell>
        <mxCell id="wI4NLF8bzCXB7XDRaqKi-29" style="edgeStyle=orthogonalEdgeStyle;rounded=0;orthogonalLoop=1;jettySize=auto;html=1;exitX=1;exitY=0.5;exitDx=0;exitDy=0;entryX=0;entryY=0.5;entryDx=0;entryDy=0;" parent="1" source="wI4NLF8bzCXB7XDRaqKi-5" target="wI4NLF8bzCXB7XDRaqKi-8" edge="1">
          <mxGeometry relative="1" as="geometry" />
        </mxCell>
        <mxCell id="wI4NLF8bzCXB7XDRaqKi-30" value="Extra Customer Info. (BirthDate)" style="text;html=1;align=center;verticalAlign=middle;whiteSpace=wrap;rounded=0;" parent="1" vertex="1">
          <mxGeometry x="-1960" y="-2985" width="140" height="30" as="geometry" />
        </mxCell>
        <mxCell id="wI4NLF8bzCXB7XDRaqKi-31" value="Location of Customers" style="text;html=1;align=center;verticalAlign=middle;whiteSpace=wrap;rounded=0;" parent="1" vertex="1">
          <mxGeometry x="-1960" y="-2855" width="140" height="30" as="geometry" />
        </mxCell>
        <mxCell id="wI4NLF8bzCXB7XDRaqKi-32" value="Product Categories" style="text;html=1;align=center;verticalAlign=middle;whiteSpace=wrap;rounded=0;" parent="1" vertex="1">
          <mxGeometry x="-1960" y="-3114" width="140" height="30" as="geometry" />
        </mxCell>
        <mxCell id="wI4NLF8bzCXB7XDRaqKi-33" style="edgeStyle=orthogonalEdgeStyle;rounded=0;orthogonalLoop=1;jettySize=auto;html=1;entryX=1;entryY=0.5;entryDx=0;entryDy=0;" parent="1" source="wI4NLF8bzCXB7XDRaqKi-18" target="wI4NLF8bzCXB7XDRaqKi-9" edge="1">
          <mxGeometry relative="1" as="geometry" />
        </mxCell>
        <mxCell id="wI4NLF8bzCXB7XDRaqKi-35" style="edgeStyle=orthogonalEdgeStyle;rounded=0;orthogonalLoop=1;jettySize=auto;html=1;entryX=1;entryY=0.5;entryDx=0;entryDy=0;" parent="1" source="wI4NLF8bzCXB7XDRaqKi-14" target="wI4NLF8bzCXB7XDRaqKi-9" edge="1">
          <mxGeometry relative="1" as="geometry" />
        </mxCell>
        <mxCell id="wI4NLF8bzCXB7XDRaqKi-36" style="edgeStyle=orthogonalEdgeStyle;rounded=0;orthogonalLoop=1;jettySize=auto;html=1;entryX=1;entryY=0.5;entryDx=0;entryDy=0;" parent="1" source="wI4NLF8bzCXB7XDRaqKi-20" target="wI4NLF8bzCXB7XDRaqKi-23" edge="1">
          <mxGeometry relative="1" as="geometry" />
        </mxCell>
        <mxCell id="wI4NLF8bzCXB7XDRaqKi-38" value="" style="rounded=1;whiteSpace=wrap;html=1;fillColor=none;dashed=1;" parent="1" vertex="1">
          <mxGeometry x="-2480" y="-3135" width="388" height="385" as="geometry" />
        </mxCell>
        <mxCell id="wI4NLF8bzCXB7XDRaqKi-39" value="" style="rounded=1;whiteSpace=wrap;html=1;fillColor=none;dashed=1;strokeColor=#B09500;fontColor=#000000;" parent="1" vertex="1">
          <mxGeometry x="-2008" y="-3141" width="252" height="415" as="geometry" />
        </mxCell>
        <mxCell id="wI4NLF8bzCXB7XDRaqKi-40" value="CRM" style="rounded=1;whiteSpace=wrap;html=1;fillColor=#3333FF;" parent="1" vertex="1">
          <mxGeometry x="-2345" y="-3157" width="98" height="41" as="geometry" />
        </mxCell>
        <mxCell id="wI4NLF8bzCXB7XDRaqKi-41" value="ERP" style="rounded=1;whiteSpace=wrap;html=1;fillColor=#e3c800;fontColor=#000000;strokeColor=#B09500;" parent="1" vertex="1">
          <mxGeometry x="-1939" y="-3157" width="98" height="41" as="geometry" />
        </mxCell>
        <mxCell id="Tffn6s2zW0khLA6aPdDL-1" value="&lt;font style=&quot;color: rgb(51, 255, 255);&quot;&gt;Product&lt;/font&gt;" style="text;html=1;strokeColor=#6F0000;fillColor=#a20025;align=center;verticalAlign=middle;whiteSpace=wrap;overflow=hidden;fontColor=#ffffff;rounded=1;" vertex="1" parent="1">
          <mxGeometry x="-1960" y="-3025" width="138" height="20" as="geometry" />
        </mxCell>
        <mxCell id="Tffn6s2zW0khLA6aPdDL-2" value="&lt;font style=&quot;color: rgb(51, 255, 255);&quot;&gt;Product&lt;/font&gt;" style="text;html=1;strokeColor=#6F0000;fillColor=#a20025;align=center;verticalAlign=middle;whiteSpace=wrap;overflow=hidden;fontColor=#ffffff;rounded=1;" vertex="1" parent="1">
          <mxGeometry x="-2260" y="-3020" width="138" height="20" as="geometry" />
        </mxCell>
        <mxCell id="Tffn6s2zW0khLA6aPdDL-3" value="&lt;font style=&quot;color: rgb(51, 255, 255);&quot;&gt;Customer&lt;/font&gt;" style="text;html=1;strokeColor=#005700;fillColor=#008a00;align=center;verticalAlign=middle;whiteSpace=wrap;overflow=hidden;fontColor=#ffffff;rounded=1;" vertex="1" parent="1">
          <mxGeometry x="-2260" y="-2820" width="138" height="20" as="geometry" />
        </mxCell>
        <mxCell id="Tffn6s2zW0khLA6aPdDL-4" value="&lt;font style=&quot;color: rgb(51, 255, 255);&quot;&gt;Customer&lt;/font&gt;" style="text;html=1;strokeColor=#005700;fillColor=#008a00;align=center;verticalAlign=middle;whiteSpace=wrap;overflow=hidden;fontColor=#ffffff;rounded=1;" vertex="1" parent="1">
          <mxGeometry x="-1958" y="-2897" width="138" height="20" as="geometry" />
        </mxCell>
        <mxCell id="Tffn6s2zW0khLA6aPdDL-5" value="&lt;font style=&quot;color: rgb(51, 255, 255);&quot;&gt;Customer&lt;/font&gt;" style="text;html=1;strokeColor=#005700;fillColor=#008a00;align=center;verticalAlign=middle;whiteSpace=wrap;overflow=hidden;fontColor=#ffffff;rounded=1;" vertex="1" parent="1">
          <mxGeometry x="-1960" y="-2770" width="138" height="20" as="geometry" />
        </mxCell>
        <mxCell id="Tffn6s2zW0khLA6aPdDL-6" value="&lt;font style=&quot;color: rgb(51, 255, 255);&quot;&gt;Sales&lt;/font&gt;" style="text;html=1;strokeColor=#314354;fillColor=#647687;align=center;verticalAlign=middle;whiteSpace=wrap;overflow=hidden;fontColor=#ffffff;rounded=1;" vertex="1" parent="1">
          <mxGeometry x="-2458" y="-2900" width="138" height="20" as="geometry" />
        </mxCell>
      </root>
    </mxGraphModel>
  </diagram>
</mxfile>
